<?xml version="1.0" encoding="UTF-8"?>
<svg id="Layer_1" data-name="Layer 1" xmlns="http://www.w3.org/2000/svg" viewBox="0 0 524.18 116.05">
  <defs>
    <style>
      .cls-1 {
        fill: #3856a6;
      }

      .cls-2 {
        fill: none;
        stroke: #3856a6;
        stroke-linecap: round;
        stroke-linejoin: round;
        stroke-width: 10.5px;
      }
    </style>
  </defs>
  <path class="cls-2" d="M30.9,48.5c-3.99,1.67-7.6,2.7-10.81,3.05-11.22,1.19-18.79-11.26-12.65-20.74C15.92,17.72,38.52,4.77,57.73,5.26c4.76,.12,8.94,3.36,10.1,7.98,4.63,18.44-23.19,44.22-29.38,69.67-.33,1.36,1.38,2.27,2.35,1.26,9.67-10.02,38.37-39.76,48.97-50.75,.86-.89,2.32,.05,1.87,1.21-4.82,12.42-8.92,25.72-6.76,36.09,1.12,5.38,5.99,9.11,11.48,9.26,34.65,.93,55.42-53.92,31.05-65.86"/>
  <path class="cls-2" d="M133.45,63.55c8.39,.19,17.98-3.6,22.14-9.3,2.61-3.57,.11-8.29-4.31-8.2-2.71,.06-5.34,1.37-8.72,3.73-5.43,4.4-9.16,10.21-10.28,17.15-.73,4.5,2.35,8.7,6.86,9.42,10.38,1.65,19.05-5.55,27.29-15.02"/>
  <path class="cls-2" d="M298.83,63.55c8.39,.19,17.98-3.6,22.14-9.3,2.61-3.57,.11-8.29-4.31-8.2-2.71,.06-5.34,1.37-8.72,3.73-5.43,4.4-9.16,10.21-10.28,17.15-.73,4.5,2.35,8.7,6.86,9.42,10.38,1.65,19.05-5.55,27.29-15.02"/>
  <path class="cls-2" d="M457.06,63.55c8.39,.19,17.98-3.6,22.14-9.3,2.61-3.57,.11-8.29-4.31-8.2-2.71,.06-5.34,1.37-8.72,3.73-5.43,4.4-9.16,10.21-10.28,17.15-.73,4.5,2.35,8.7,6.86,9.42,10.38,1.65,19.05-5.55,27.29-15.02"/>
  <path class="cls-2" d="M188.8,25.4c-12.8,15.75-23.24,31.28-26.6,46.15-.63,2.81,1.61,5.51,4.49,5.44,11.06-.25,18.42-7.6,23.57-19.22,2-4.52-1.79-9.44-6.67-8.66-7.87,1.26-13.4,4.27-17.15,12.22"/>
  <path class="cls-2" d="M217.42,43.54c-8.07,1.57-13.69-.05-16.55-5.24-1.97-3.57-1.86-7.95-.25-11.69,3.71-8.62,11.33-13.83,21.57-16.76,5.65-1.61,11.53-2.24,17.41-2.24h26.74c5.89,0,11.79,.89,17.32,2.92,.15,.05,.3,.11,.45,.17,13.91,5.22,20.52,21.47,14.48,35.04-14.34,32.18-51.11,43.69-69.8,40.8-5.59-.86-9.62-6.2-8.93-11.81,2.65-21.52,18.08-39.07,38.28-55.14"/>
  <path class="cls-2" d="M350.41,55.57c4.37-2.48,6.82-4.8,4.55-7.54-1.18-1.43-3.01-2.14-4.85-2.31-11.15-1.05-19.33,4.69-18.3,11.86,.77,7.7,17.37-.17,19.59,6.5,1.2,6.34-11.61,16.63-25.15,18.49"/>
  <path class="cls-1" d="M377.68,50.65c-6.1,7.83-11.14,16.69-11.27,26.7-.03-.62-.74-1.65-1.55-1.75-.35-.08-.72-.06-1.05,.06,.05,0,.25-.05,.37-.08,7.09-1.46,13.19-4.75,19.41-8.88,.85-.58,2.02-.34,2.58,.52,.43,.66,.39,1.5-.05,2.1-3.14,4.3-7.14,8.11-11.91,11.05-2.38,1.46-4.95,2.7-7.64,3.61-1.38,.54-2.99,.6-4.43,.18-2.89-.78-5.05-3.68-5.07-6.69-1.12-12.38,4.51-24.61,12.55-33.57,4.62-4.95,12.1,1.31,8.06,6.73h0Z"/>
  <path class="cls-2" d="M417.2,51.07c-8.41-5.01-15.68-3.94-23.88,4.61-5.51,5.06-9.24,7.96-10.19,15.87-.55,4.52,2.87,6.3,7.36,5.53,2.84-.49,6.44-2.5,9-5.31l16.09-17.8-18.82,37.9c-1.73,4.23-3.95,8.28-6.86,11.8-3.39,4.1-7.13,6.88-11.49,7.11-2.33,.12-4.18-1.98-3.94-4.3,.63-6.21,5.09-12.85,11.17-19.49,6.45-8.17,17.38-11.53,27.98-17.2"/>
  <path class="cls-2" d="M431.83,47.28l-15.4,30.31c9.5-16.53,19.19-26.11,29.37-28.95,2.33-.65,4.89,.74,5.22,3.13,.59,4.26-4.25,10.7-12.26,22.25-.87,1.26-.15,3.06,1.38,3.26,5.59,.72,10.84-1.33,15.65-6.88"/>
  <path class="cls-2" d="M498.4,47.28l-15.74,30.31c12.07-21.65,24.15-33.2,36.28-26.52"/>
  <circle class="cls-1" cx="379.65" cy="30.13" r="5.21"/>
</svg>